<svg width="41" height="40" viewBox="0 0 41 40" fill="none" xmlns="http://www.w3.org/2000/svg">
<rect x="0.5" y="0.5" width="40" height="39" stroke="#161616"/>
<path d="M10.825 23.515V19.015L12.295 17.53H16.24L17.725 19.03V20.26H16.03V19.57L15.43 18.985H13.12L12.52 19.57V22.96L13.12 23.545H15.43L16.03 22.96V22.27H17.725V23.5L16.24 25H12.295L10.825 23.515ZM26.0471 17.53V26.77L24.5021 28.3H20.6921L19.3721 26.995V26.005H21.0671V26.5L21.4271 26.875H23.7671L24.3521 26.275V23.725L23.0921 25H20.6771L19.1471 23.455V17.53H20.8421V22.96L21.4271 23.545H22.7921L24.3521 21.925V17.53H26.0471ZM27.6215 24.355V23.395L28.2665 22.75H29.3615L29.9915 23.41V24.34L29.3615 25H28.2665L27.6215 24.355Z" fill="#161616"/>
</svg>
