<svg width="80" height="40" viewBox="0 0 80 40" fill="none" xmlns="http://www.w3.org/2000/svg">
<rect x="0.5" y="0.5" width="79" height="39" stroke="#161616"/>
<path d="M10.825 23.515V19.015L12.295 17.53H16.24L17.725 19.03V20.26H16.03V19.57L15.43 18.985H13.12L12.52 19.57V22.96L13.12 23.545H15.43L16.03 22.96V22.27H17.725V23.5L16.24 25H12.295L10.825 23.515ZM26.0471 17.53V26.77L24.5021 28.3H20.6921L19.3721 26.995V26.005H21.0671V26.5L21.4271 26.875H23.7671L24.3521 26.275V23.725L23.0921 25H20.6771L19.1471 23.455V17.53H20.8421V22.96L21.4271 23.545H22.7921L24.3521 21.925V17.53H26.0471ZM28.2215 23.695V14.29H29.0615V19.165L30.6815 17.53H33.2165L34.5215 18.835V23.695L33.2165 25H29.5265L28.2215 23.695ZM32.8565 24.235L33.6815 23.425V19.09L32.8565 18.28H30.9515L29.0615 20.185V23.425L29.8865 24.235H32.8565ZM36.5512 23.845V21.88L37.7062 20.755H41.7562V19.09L40.9312 18.265H38.2912L37.4512 19.09V19.765H36.6112V18.835L37.9162 17.53H41.2912L42.5962 18.835V25H41.7712V23.545L40.2712 25H37.7062L36.5512 23.845ZM40.0762 24.25L41.7562 22.6V21.505H38.0512L37.3912 22.135V23.605L38.0512 24.25H40.0762ZM44.6957 23.845V21.88L45.8507 20.755H49.9007V19.09L49.0757 18.265H46.4357L45.5957 19.09V19.765H44.7557V18.835L46.0607 17.53H49.4357L50.7407 18.835V25H49.9157V23.545L48.4157 25H45.8507L44.6957 23.845ZM48.2207 24.25L49.9007 22.6V21.505H46.1957L45.5357 22.135V23.605L46.1957 24.25H48.2207ZM52.5402 24.175L57.2352 18.265V18.235H52.6902V17.53H58.1802V18.355L53.4852 24.25V24.28H58.1802V25H52.5402V24.175ZM59.5275 24.175L64.2225 18.265V18.235H59.6775V17.53H65.1675V18.355L60.4725 24.25V24.28H65.1675V25H59.5275V24.175ZM66.4398 24.355V23.395L67.0848 22.75H68.1798L68.8098 23.41V24.34L68.1798 25H67.0848L66.4398 24.355Z" fill="#161616"/>
</svg>
